<?xml version="1.0" standalone="no"?>
<!DOCTYPE svg PUBLIC "-//W3C//DTD SVG 20010904//EN"
 "http://www.w3.org/TR/2001/REC-SVG-20010904/DTD/svg10.dtd">
<svg version="1.0" xmlns="http://www.w3.org/2000/svg"
 width="1254.000000pt" height="1254.000000pt" viewBox="0 0 1254.000000 1254.000000"
 preserveAspectRatio="xMidYMid meet">

<g transform="translate(0.000000,1254.000000) scale(0.100000,-0.100000)"
fill="#000000" stroke="none">
<path d="M6980 10706 c-106 -31 -191 -92 -211 -153 -13 -40 -5 -68 32 -111 32
-36 37 -77 15 -120 -25 -49 -52 -63 -148 -82 -462 -91 -838 -379 -1057 -809
-131 -258 -194 -551 -173 -804 l8 -98 -56 -34 c-257 -156 -351 -473 -219 -744
46 -94 151 -199 248 -250 97 -50 181 -71 292 -71 l87 0 70 -89 c79 -98 192
-207 282 -273 33 -24 60 -46 60 -49 0 -3 -10 -11 -23 -16 -13 -6 -68 -45 -123
-86 -241 -181 -425 -435 -519 -712 l-24 -70 -519 -3 -519 -2 -166 502 c-91
277 -202 616 -246 753 -102 317 -147 395 -273 476 -77 50 -143 67 -343 88
-105 11 -390 43 -635 71 -487 56 -575 59 -645 23 -119 -63 -179 -205 -141
-337 22 -74 89 -145 161 -170 34 -11 232 -35 605 -72 305 -30 575 -57 600 -60
36 -5 54 -15 91 -52 43 -44 50 -60 107 -227 33 -99 135 -400 227 -670 92 -269
270 -796 395 -1170 125 -374 314 -934 419 -1243 105 -310 191 -568 191 -572 0
-5 -26 -11 -57 -15 -266 -29 -469 -202 -533 -451 -11 -42 -20 -102 -20 -133 1
-190 114 -378 280 -465 88 -47 173 -66 293 -66 53 0 97 -3 97 -6 0 -3 -15 -24
-34 -47 -132 -164 -195 -425 -152 -637 56 -275 211 -477 459 -598 134 -66 228
-87 392 -86 160 0 221 13 345 74 466 232 633 811 356 1239 l-46 71 876 0 875
0 -39 -52 c-58 -78 -87 -133 -122 -233 -29 -79 -33 -106 -37 -220 -6 -143 6
-214 54 -334 68 -171 205 -333 358 -423 161 -95 361 -139 531 -118 392 49 703
357 755 749 27 200 -27 415 -147 584 -19 26 -34 49 -34 52 0 3 43 5 95 5 156
0 227 46 249 159 15 82 -48 180 -133 204 -37 11 -391 12 -1926 5 -1034 -4
-2086 -7 -2337 -6 -446 3 -457 4 -485 24 -48 36 -73 82 -73 136 0 90 60 159
152 176 29 6 217 15 418 21 649 20 1573 70 2720 146 1374 92 1291 83 1417 145
74 37 165 118 217 192 19 29 64 125 100 213 35 88 191 477 346 865 155 388
318 797 362 910 80 205 80 205 76 285 -3 65 -10 90 -33 134 -36 66 -92 115
-162 141 -52 19 -77 20 -701 20 l-648 0 -27 56 c-53 108 -190 228 -315 274
-31 12 -94 26 -141 32 -74 9 -87 13 -105 36 -51 67 -159 170 -247 237 -53 40
-103 75 -110 77 -19 7 -17 9 111 71 357 173 618 423 793 758 30 57 65 130 78
163 18 44 34 65 65 87 59 41 130 124 164 194 32 63 60 174 60 237 0 71 -30
194 -66 268 -46 93 -158 209 -254 260 l-65 35 -28 140 c-36 177 -73 291 -142
430 -178 359 -538 634 -973 745 -25 6 -45 18 -48 28 -82 273 -296 446 -564
458 -61 2 -111 -1 -140 -10z m285 -515 c53 -25 119 -95 145 -153 29 -66 66
-94 136 -102 252 -29 530 -177 703 -372 162 -183 273 -444 306 -717 9 -71 40
-112 94 -127 118 -32 187 -144 198 -325 8 -130 -24 -247 -96 -355 -9 -14 -32
-65 -50 -115 -68 -185 -168 -333 -328 -486 -332 -318 -788 -480 -1237 -441
-370 33 -703 181 -941 416 -109 109 -181 203 -196 258 -13 51 -52 88 -93 88
-17 0 -55 -9 -84 -20 -109 -42 -215 -17 -303 70 -66 65 -89 123 -89 219 0 83
30 150 92 207 58 54 103 68 185 60 64 -7 65 -6 100 29 32 32 35 39 31 79 -3
24 -15 57 -26 73 -41 58 -51 266 -21 448 26 159 110 363 209 510 179 265 477
455 800 511 52 8 110 24 130 34 49 25 113 95 143 156 14 27 36 55 49 61 35 18
98 15 143 -6z m-588 -3395 c240 -69 481 -94 725 -76 152 12 154 11 218 -13
147 -55 291 -148 395 -256 l49 -51 -24 -17 c-50 -33 -137 -134 -166 -192 l-29
-60 -999 0 -998 -1 6 30 c10 50 73 178 130 264 90 135 237 270 361 334 56 28
171 70 197 71 9 1 70 -14 135 -33z m1849 -599 c228 -116 230 -428 2 -549 -37
-20 -58 -23 -143 -23 -113 0 -137 9 -212 78 -63 58 -85 107 -91 197 -3 60 0
86 18 133 28 74 100 148 172 176 74 30 183 25 254 -12z m-661 -542 c39 -80 96
-147 168 -199 244 -174 555 -148 768 64 47 47 86 96 103 133 l28 57 509 0
c280 0 509 -2 509 -4 0 -5 -231 -589 -521 -1318 -234 -586 -236 -590 -349
-647 -72 -36 -44 -33 -725 -76 -1704 -110 -2312 -145 -2740 -161 -201 -8 -223
-3 -267 56 -12 16 -56 134 -99 262 -42 128 -201 604 -353 1057 -152 454 -276
826 -276 828 0 2 724 3 1609 3 l1609 0 27 -55z m-2224 -3349 c233 -50 390
-244 391 -486 1 -223 -142 -417 -354 -481 -90 -28 -224 -23 -310 10 -172 67
-293 235 -305 426 -7 101 8 175 54 267 73 145 214 245 383 271 49 8 76 6 141
-7z m3090 -2 c179 -53 308 -188 354 -369 65 -256 -102 -530 -366 -600 -155
-42 -332 8 -450 126 -169 169 -192 435 -54 643 110 166 335 253 516 200z"/>
<path d="M7450 9523 c-25 -23 -33 -40 -41 -93 -14 -92 -58 -181 -122 -244 -67
-67 -137 -103 -224 -116 -54 -7 -73 -14 -90 -35 -31 -35 -30 -84 1 -118 32
-34 61 -41 160 -35 256 16 486 269 486 534 0 68 -2 75 -31 103 -41 42 -95 43
-139 4z"/>
<path d="M8074 8520 c-129 -27 -261 -144 -294 -262 -36 -125 130 -179 183 -60
31 71 109 122 185 122 41 0 96 -30 138 -76 35 -38 46 -44 80 -44 51 0 81 21
94 68 9 33 7 44 -18 92 -60 118 -226 190 -368 160z"/>
<path d="M6727 8310 c-171 -43 -340 -250 -287 -351 16 -30 68 -52 105 -45 37
7 54 24 84 84 39 77 133 124 213 107 18 -4 55 -29 86 -58 46 -44 59 -52 94
-52 33 0 45 7 69 33 38 42 38 84 0 144 -66 104 -238 169 -364 138z"/>
<path d="M7661 7770 c-99 -105 -217 -133 -317 -75 -113 65 -120 68 -159 55
-43 -14 -67 -47 -68 -95 -1 -45 25 -80 94 -127 171 -116 426 -84 580 74 77 79
88 141 35 194 -27 27 -42 34 -71 34 -33 0 -45 -7 -94 -60z"/>
</g>
</svg>
